<svg xmlns="http://www.w3.org/2000/svg" width="352.034" height="109.653" viewBox="0 0 352.034 109.653"><defs><style>.a{opacity:0.2;}.b{fill:#656565;}.c,.h{fill:#d0162d;}.d{fill:#3f3d56;}.e,.i{fill:#39af70;}.f{opacity:0.1;}.g{fill:#ed6b1c;}.g,.h,.i{opacity:0.4;}.j{fill:#ccc;}.k{fill:#f2f2f2;}</style></defs><g class="a" transform="translate(0 -44.005)"><path class="b" d="M174.417,462.318l-.6-.136a137.486,137.486,0,0,1,268.138-.366l-.6.137A136.1,136.1,0,0,0,307.923,355.591C244.465,355.591,188.318,400.476,174.417,462.318Z" transform="translate(-129.738 -310.966)"/><circle class="c" cx="16.822" cy="16.822" r="16.822" transform="translate(261.717 44.497)"/><rect class="d" width="0.619" height="24.467" transform="translate(271.534 128.572)"/><path class="e" d="M901.983,603.631c.039,8.555-5.98,15.519-5.98,15.519s-6.083-6.908-6.123-15.463,5.98-15.519,5.98-15.519S901.943,595.076,901.983,603.631Z" transform="translate(-624.114 -471.941)"/><path class="f" d="M901.983,603.631c.039,8.555-5.98,15.519-5.98,15.519s-6.083-6.908-6.123-15.463,5.98-15.519,5.98-15.519S901.943,595.076,901.983,603.631Z" transform="translate(-624.114 -471.941)"/><circle class="g" cx="9.678" cy="9.678" r="9.678" transform="translate(145.447 60.573)"/><circle class="h" cx="6.789" cy="6.789" r="6.789" transform="translate(130.431 68.084)"/><circle class="h" cx="6.789" cy="6.789" r="6.789" transform="translate(57.672 87.595)"/><circle class="i" cx="9.678" cy="9.678" r="9.678" transform="translate(255.449 59.777)"/><path class="c" d="M87.777,689.59a6.233,6.233,0,0,0,2.322,3.14,5.367,5.367,0,0,0-1.9-7.023A6.233,6.233,0,0,0,87.777,689.59Z" transform="translate(-70.239 -539.272)"/><path class="e" d="M82.6,693.512a6.233,6.233,0,0,1,1.615,3.556A5.367,5.367,0,0,1,79,691.993,6.235,6.235,0,0,1,82.6,693.512Z" transform="translate(-64.291 -543.611)"/><path class="e" d="M699.778,689.59a6.233,6.233,0,0,0,2.322,3.14,5.367,5.367,0,0,0-1.9-7.023A6.233,6.233,0,0,0,699.778,689.59Z" transform="translate(-492.759 -539.272)"/><path class="c" d="M694.6,693.512a2.1,2.1,0,1,1-1.982,2.036,2.1,2.1,0,1,1,1.982-2.036Z" transform="translate(-486.811 -543.611)"/><path class="b" d="M65.281,432.6,64,430.461l11.959-10.25h30.752v2.99l-11.1,11.959-12.813,2.563Z" transform="translate(-44.179 -296.855)"/><path class="j" d="M175.786,424.738v-6.682H171.76v2.107l-1.267-1.44-10.251,10.251-1.709,1.708-2.135,8.542,3.844,9.4h19.647V429.4Z" transform="translate(-107.961 -295.369)"/><rect class="k" width="32.46" height="19.647" transform="translate(19.821 133.605)"/><rect class="b" width="6.834" height="5.979" transform="translate(40.963 139.798)"/><rect class="j" width="5.979" height="13.667" transform="translate(32.207 139.585)"/><path class="b" d="M76.216,474.75v-2.135H73.654v2.135h2.562Z" transform="translate(-50.843 -333.03)"/><path class="b" d="M76,485.026H73.654v2.136h2.562v-2.136Z" transform="translate(-50.843 -341.598)"/><rect class="b" width="2.563" height="2.136" transform="translate(27.082 139.585)"/><rect class="b" width="2.563" height="2.136" transform="translate(27.082 143.428)"/><path class="b" d="M192.748,475.44V473.3h-2.563v2.136h2.563Z" transform="translate(-131.284 -333.506)"/><path class="b" d="M192.534,485.716h-2.349v2.135h2.563v-2.135Z" transform="translate(-131.284 -342.074)"/><rect class="b" width="2.563" height="2.136" transform="translate(63.172 139.798)"/><rect class="b" width="2.563" height="2.136" transform="translate(63.172 143.642)"/><path class="b" d="M464.281,432.6,463,430.461l11.959-10.25h30.752v2.99l-11.1,11.959-12.813,2.563Z" transform="translate(-319.653 -296.855)"/><path class="j" d="M574.786,424.738v-6.682H570.76v2.107l-1.267-1.44-10.25,10.251-1.709,1.708-2.135,8.542,3.844,9.4h19.647V429.4Z" transform="translate(-383.441 -295.369)"/><rect class="k" width="32.46" height="19.647" transform="translate(143.348 133.605)"/><rect class="b" width="6.834" height="5.979" transform="translate(164.487 139.798)"/><rect class="j" width="5.979" height="13.667" transform="translate(155.734 139.585)"/><path class="b" d="M475.216,474.75v-2.135h-2.562v2.135h2.563Z" transform="translate(-326.313 -333.03)"/><path class="b" d="M475,485.026h-2.349v2.136h2.563v-2.136Z" transform="translate(-326.313 -341.598)"/><rect class="b" width="2.563" height="2.136" transform="translate(150.611 139.585)"/><rect class="b" width="2.563" height="2.136" transform="translate(150.611 143.428)"/><path class="b" d="M591.748,475.44V473.3h-2.563v2.136h2.563Z" transform="translate(-406.764 -333.506)"/><path class="b" d="M591.534,485.716h-2.349v2.135h2.563v-2.135Z" transform="translate(-406.764 -342.074)"/><rect class="b" width="2.563" height="2.136" transform="translate(186.691 139.798)"/><rect class="b" width="2.563" height="2.136" transform="translate(186.691 143.642)"/><path class="b" d="M275.755,316.753l-2.135-1.709,11.959-10.678H315.9v9.4L296.257,327Z" transform="translate(-188.906 -216.889)"/><path class="j" d="M371.929,310.357V304.58H367.9V306l-1.5-1.628-9.823,10.678-3.844,2.563-5.96,43.545,8.988,8.988h20.89V315.472Z" transform="translate(-239.409 -216.889)"/><rect class="k" width="32.46" height="55.096" transform="translate(84.715 98.155)"/><rect class="j" width="5.979" height="13.454" transform="translate(97.313 139.798)"/><path class="b" d="M287.9,480.956v-2.135h-2.562v2.135H287.9Z" transform="translate(-196.996 -337.314)"/><path class="b" d="M287.691,491.232h-2.349v2.136H287.9v-2.136Z" transform="translate(-196.996 -345.882)"/><rect class="b" width="2.563" height="2.136" transform="translate(92.616 141.507)"/><rect class="b" width="2.563" height="2.136" transform="translate(92.616 145.35)"/><path class="b" d="M344.447,480.956v-2.135h-2.562v2.135h2.563Z" transform="translate(-236.031 -337.314)"/><path class="b" d="M344.233,491.232h-2.349v2.136h2.563v-2.136Z" transform="translate(-236.031 -345.882)"/><rect class="b" width="2.563" height="2.136" transform="translate(110.123 141.507)"/><rect class="b" width="2.563" height="2.136" transform="translate(110.123 145.35)"/><path class="b" d="M402.368,343.048v-2.135h-2.562v2.135h2.563Z" transform="translate(-276.019 -242.117)"/><path class="b" d="M402.154,353.325h-2.349v2.135h2.563v-2.135Z" transform="translate(-276.019 -250.685)"/><rect class="b" width="2.563" height="2.136" transform="translate(128.056 98.796)"/><rect class="b" width="2.563" height="2.136" transform="translate(128.056 102.64)"/><path class="b" d="M402.368,381.663v-2.136h-2.562v2.136h2.563Z" transform="translate(-276.019 -268.772)"/><path class="b" d="M402.154,391.939h-2.349v2.135h2.563v-2.135Z" transform="translate(-276.019 -277.34)"/><rect class="b" width="2.563" height="2.136" transform="translate(128.056 110.755)"/><rect class="b" width="2.563" height="2.136" transform="translate(128.056 114.599)"/><path class="b" d="M402.368,420.277v-2.136h-2.562v2.136h2.563Z" transform="translate(-276.019 -295.427)"/><path class="b" d="M402.154,430.553h-2.349v2.135h2.563v-2.135Z" transform="translate(-276.019 -303.995)"/><rect class="b" width="2.563" height="2.136" transform="translate(128.056 122.714)"/><rect class="b" width="2.563" height="2.136" transform="translate(128.056 126.558)"/><path class="b" d="M402.368,458.891v-2.136h-2.562v2.136h2.563Z" transform="translate(-276.019 -322.082)"/><path class="b" d="M402.154,469.167h-2.349V471.3h2.563v-2.135Z" transform="translate(-276.019 -330.65)"/><rect class="b" width="2.563" height="2.136" transform="translate(128.056 134.673)"/><rect class="b" width="2.563" height="2.136" transform="translate(128.056 138.517)"/><rect class="b" width="24.772" height="5.125" transform="translate(88.345 100.931)"/><rect class="b" width="24.772" height="5.125" transform="translate(88.345 111.182)"/><rect class="b" width="24.772" height="5.125" transform="translate(88.345 121.433)"/><rect class="b" width="24.772" height="5.125" transform="translate(88.345 131.683)"/><path class="b" d="M678.755,316.753l-2.135-1.709,11.959-10.678H718.9v9.4L699.257,327Z" transform="translate(-467.135 -216.889)"/><path class="j" d="M774.929,310.357V304.58H770.9V306l-1.5-1.628-9.824,10.678-3.844,2.563-5.96,43.545,8.989,8.988h20.889V315.472Z" transform="translate(-517.637 -216.889)"/><rect class="k" width="32.46" height="55.096" transform="translate(209.487 98.155)"/><rect class="j" width="5.979" height="13.454" transform="translate(222.087 139.798)"/><path class="b" d="M690.9,480.956v-2.135h-2.563v2.135H690.9Z" transform="translate(-475.22 -337.314)"/><path class="b" d="M690.691,491.232h-2.349v2.136H690.9v-2.136Z" transform="translate(-475.22 -345.882)"/><rect class="b" width="2.563" height="2.136" transform="translate(217.391 141.507)"/><rect class="b" width="2.563" height="2.136" transform="translate(217.391 145.35)"/><path class="b" d="M747.447,480.956v-2.135h-2.562v2.135h2.563Z" transform="translate(-514.256 -337.314)"/><path class="b" d="M747.233,491.232h-2.349v2.136h2.563v-2.136Z" transform="translate(-514.256 -345.882)"/><rect class="b" width="2.563" height="2.136" transform="translate(234.898 141.507)"/><rect class="b" width="2.563" height="2.136" transform="translate(234.898 145.35)"/><path class="b" d="M805.368,343.048v-2.135h-2.562v2.135h2.563Z" transform="translate(-554.244 -242.117)"/><path class="b" d="M805.154,353.325h-2.349v2.135h2.563v-2.135Z" transform="translate(-554.244 -250.685)"/><rect class="b" width="2.563" height="2.136" transform="translate(252.831 98.796)"/><rect class="b" width="2.563" height="2.136" transform="translate(252.831 102.64)"/><path class="b" d="M805.368,381.663v-2.136h-2.562v2.136h2.563Z" transform="translate(-554.244 -268.772)"/><path class="b" d="M805.154,391.939h-2.349v2.135h2.563v-2.135Z" transform="translate(-554.244 -277.34)"/><rect class="b" width="2.563" height="2.136" transform="translate(252.831 110.755)"/><rect class="b" width="2.563" height="2.136" transform="translate(252.831 114.599)"/><path class="b" d="M805.368,420.277v-2.136h-2.562v2.136h2.563Z" transform="translate(-554.244 -295.427)"/><path class="b" d="M805.154,430.553h-2.349v2.135h2.563v-2.135Z" transform="translate(-554.244 -303.995)"/><rect class="b" width="2.563" height="2.136" transform="translate(252.831 122.714)"/><rect class="b" width="2.563" height="2.136" transform="translate(252.831 126.558)"/><path class="b" d="M805.368,458.891v-2.136h-2.562v2.136h2.563Z" transform="translate(-554.244 -322.082)"/><path class="b" d="M805.154,469.167h-2.349V471.3h2.563v-2.135Z" transform="translate(-554.244 -330.65)"/><rect class="b" width="2.563" height="2.136" transform="translate(252.831 134.673)"/><rect class="b" width="2.563" height="2.136" transform="translate(252.831 138.517)"/><rect class="b" width="24.772" height="5.125" transform="translate(213.118 100.931)"/><rect class="b" width="24.772" height="5.125" transform="translate(213.118 111.182)"/><rect class="b" width="24.772" height="5.125" transform="translate(213.118 121.433)"/><rect class="b" width="24.772" height="5.125" transform="translate(213.118 131.683)"/><path class="b" d="M899.755,316.753l-2.135-1.709,11.959-10.678H939.9v9.4L920.256,327Z" transform="translate(-619.723 -216.889)"/><path class="j" d="M995.929,310.357V304.58H991.9V306l-1.5-1.628-9.824,10.678-3.844,2.563-5.96,43.545,8.989,8.988h20.891V315.472Z" transform="translate(-670.22 -216.889)"/><rect class="k" width="32.46" height="55.096" transform="translate(277.897 98.155)"/><rect class="j" width="5.979" height="13.454" transform="translate(290.497 139.798)"/><path class="b" d="M911.9,480.956v-2.135h-2.562v2.135H911.9Z" transform="translate(-627.795 -337.314)"/><path class="b" d="M911.691,491.232h-2.349v2.136H911.9v-2.136Z" transform="translate(-627.795 -345.882)"/><rect class="b" width="2.563" height="2.136" transform="translate(285.798 141.507)"/><rect class="b" width="2.563" height="2.136" transform="translate(285.798 145.35)"/><path class="b" d="M968.447,480.956v-2.135h-2.563v2.135h2.563Z" transform="translate(-666.845 -337.314)"/><path class="b" d="M968.233,491.232h-2.349v2.136h2.563v-2.136Z" transform="translate(-666.845 -345.882)"/><rect class="b" width="2.563" height="2.136" transform="translate(303.31 141.507)"/><rect class="b" width="2.563" height="2.136" transform="translate(303.31 145.35)"/><path class="b" d="M1026.365,343.048v-2.135H1023.8v2.135h2.565Z" transform="translate(-706.824 -242.117)"/><path class="b" d="M1026.151,353.325H1023.8v2.135h2.565v-2.135Z" transform="translate(-706.824 -250.685)"/><rect class="b" width="2.563" height="2.136" transform="translate(321.249 98.796)"/><rect class="b" width="2.563" height="2.136" transform="translate(321.249 102.64)"/><path class="b" d="M1026.365,381.663v-2.136H1023.8v2.136h2.565Z" transform="translate(-706.824 -268.772)"/><path class="b" d="M1026.151,391.939H1023.8v2.135h2.565v-2.135Z" transform="translate(-706.824 -277.34)"/><rect class="b" width="2.563" height="2.136" transform="translate(321.249 110.755)"/><rect class="b" width="2.563" height="2.136" transform="translate(321.249 114.599)"/><path class="b" d="M1026.365,420.277v-2.136H1023.8v2.136h2.565Z" transform="translate(-706.824 -295.427)"/><path class="b" d="M1026.151,430.553H1023.8v2.135h2.565v-2.135Z" transform="translate(-706.824 -303.995)"/><rect class="b" width="2.563" height="2.136" transform="translate(321.249 122.714)"/><rect class="b" width="2.563" height="2.136" transform="translate(321.249 126.558)"/><path class="b" d="M1026.365,458.891v-2.136H1023.8v2.136h2.565Z" transform="translate(-706.824 -322.082)"/><path class="b" d="M1026.151,469.167H1023.8V471.3h2.565v-2.135Z" transform="translate(-706.824 -330.65)"/><rect class="b" width="2.563" height="2.136" transform="translate(321.249 134.673)"/><rect class="b" width="2.563" height="2.136" transform="translate(321.249 138.517)"/><rect class="b" width="24.772" height="5.125" transform="translate(281.528 100.931)"/><rect class="b" width="24.772" height="5.125" transform="translate(281.528 111.182)"/><rect class="b" width="24.772" height="5.125" transform="translate(281.528 121.433)"/><rect class="b" width="24.772" height="5.125" transform="translate(281.528 131.683)"/><rect class="b" width="352.034" height="0.619" transform="translate(0 153.039)"/><rect class="d" width="0.619" height="24.467" transform="translate(78.023 128.572)"/><path class="e" d="M276.983,603.631c.039,8.555-5.98,15.519-5.98,15.519s-6.083-6.908-6.122-15.463,5.98-15.519,5.98-15.519S276.943,595.076,276.983,603.631Z" transform="translate(-192.623 -471.941)"/><rect class="d" width="0.619" height="24.467" transform="translate(139.947 128.572)"/><path class="e" d="M476.983,603.631c.039,8.555-5.98,15.519-5.98,15.519s-6.083-6.908-6.122-15.463,5.98-15.519,5.98-15.519S476.943,595.076,476.983,603.631Z" transform="translate(-330.7 -471.941)"/><rect class="d" width="0.619" height="24.467" transform="translate(263.483 128.572)"/><path class="e" d="M875.983,603.631c.039,8.555-5.98,15.519-5.98,15.519s-6.083-6.908-6.122-15.463,5.98-15.519,5.98-15.519S875.943,595.076,875.983,603.631Z" transform="translate(-606.164 -471.941)"/></g></svg>