<svg xmlns="http://www.w3.org/2000/svg" width="17.473" height="18.021" viewBox="0 0 17.473 18.021"><defs><style>.a{fill:#f9bb32;}.b{fill:#a56021;}.c{fill:#ffc34c;}.d{fill:#db9c2e;}.e{fill:#8c4c17;}.f{fill:#ffdf74;}.g{fill:#fff4c1;}.h{fill:#ffa730;}.i{fill:#bf6c0d;}.j{fill:#e58d23;}.k{fill:#fce575;}.l{fill:#ffb74b;}.m{fill:#99af17;}</style></defs><g transform="translate(-11.024 -7.353)"><g transform="translate(11.024 7.353)"><g transform="translate(0 0)"><path class="a" d="M27.152,23.037H12.074a1.05,1.05,0,0,1-1.05-1.05V8.4a1.05,1.05,0,0,1,1.05-1.05H27.152A1.05,1.05,0,0,1,28.2,8.4V21.987A1.05,1.05,0,0,1,27.152,23.037Z" transform="translate(-11.024 -7.353)"/></g></g><g transform="translate(24.942 19.374)"><path class="b" d="M199.132,169.139h-.287v1.322a.1.1,0,0,1-.1.085h-.928a.1.1,0,0,1-.1-.085v-1.322h-.29c-.034,0-.052-.033-.029-.053l.867-.774a.03.03,0,0,1,.037,0l.867.774C199.184,169.107,199.166,169.139,199.132,169.139Z" transform="translate(-197.379 -168.306)"/></g><g transform="translate(27.38 8.214)"><g transform="translate(0 0)"><path class="c" d="M230.248,26.8a.224.224,0,0,1-.224-.224V19.107a.224.224,0,0,1,.448,0v7.469A.224.224,0,0,1,230.248,26.8Z" transform="translate(-230.024 -18.883)"/></g></g><g transform="translate(17.834 19.818)"><path class="b" d="M106.1,174.853h-3.588a.3.3,0,0,1,0-.6H106.1a.3.3,0,1,1,0,.6Z" transform="translate(-102.208 -174.256)"/></g><g transform="translate(17.834 21.001)"><path class="b" d="M106.1,190.693h-3.588a.3.3,0,0,1,0-.6H106.1a.3.3,0,0,1,0,.6Z" transform="translate(-102.208 -190.096)"/></g><g transform="translate(11.669 19.73)"><g transform="translate(0)"><path class="b" d="M22.947,175H19.9a.247.247,0,0,1-.247-.247v-1.433a.247.247,0,0,1,.247-.247h3.043a.247.247,0,0,1,.247.247v1.433A.247.247,0,0,1,22.947,175Z" transform="translate(-19.657 -173.077)"/></g></g><g transform="translate(13.818 7.766)"><g transform="translate(0 0)"><circle class="d" cx="0.672" cy="0.672" r="0.672"/></g></g><g transform="translate(11.024 7.353)"><g transform="translate(0 0)"><path class="d" d="M13.115,21.987V8.4a1.05,1.05,0,0,1,1.05-1.05H12.074a1.05,1.05,0,0,0-1.05,1.05V21.987a1.05,1.05,0,0,0,1.05,1.05h2.091A1.05,1.05,0,0,1,13.115,21.987Z" transform="translate(-11.024 -7.353)"/></g></g><g transform="translate(11.669 19.73)"><g transform="translate(0)"><path class="e" d="M19.9,173.077a.247.247,0,0,0-.247.247v1.433A.247.247,0,0,0,19.9,175h1.2v-1.926Z" transform="translate(-19.657 -173.077)"/></g></g><g transform="translate(17.539 7.353)"><g transform="translate(0 0)"><path class="f" d="M102.823,14.3V7.353H98.256V14.3c.38,0,.38.7.76.7s.38-.7.761-.7.38.7.761.7.381-.7.761-.7.381.7.762.7S102.442,14.3,102.823,14.3Z" transform="translate(-98.256 -7.353)"/></g></g><g transform="translate(21.284 7.727)"><path class="g" d="M148.627,18.792a.224.224,0,0,1-.224-.224v-5.99a.224.224,0,1,1,.448,0v5.99A.224.224,0,0,1,148.627,18.792Z" transform="translate(-148.403 -12.354)"/></g><g transform="translate(24.113 14.619)"><g transform="translate(0 0)"><path class="h" d="M186.927,104.647a.631.631,0,0,0-.65.61v.505a.108.108,0,0,0,.112.1h1.076a.109.109,0,0,0,.112-.1v-.505A.631.631,0,0,0,186.927,104.647Zm0,.864a.351.351,0,1,1,.373-.351A.363.363,0,0,1,186.927,105.511Z" transform="translate(-186.277 -104.647)"/></g></g><g transform="translate(21.028 15.792)"><path class="i" d="M152.1,129.927h-6.78a.344.344,0,0,1-.344-.344v-8.894a.344.344,0,0,1,.344-.344h6.78a.344.344,0,0,1,.344.344v8.894A.344.344,0,0,1,152.1,129.927Z" transform="translate(-144.976 -120.345)"/></g><g transform="translate(27.899 20.351)"><g transform="translate(0)"><path class="j" d="M237.2,186.289a.224.224,0,0,1-.224-.224v-4.448a.224.224,0,1,1,.448,0v4.448A.224.224,0,0,1,237.2,186.289Z" transform="translate(-236.976 -181.393)"/></g></g><g transform="translate(21.028 15.792)"><path class="b" d="M146.283,129.594v-8.915a.345.345,0,0,1,.355-.334h-1.307a.345.345,0,0,0-.355.334v8.915a.345.345,0,0,0,.355.334h1.307A.345.345,0,0,1,146.283,129.594Z" transform="translate(-144.976 -120.345)"/></g><g transform="translate(21.695 16.417)"><g transform="translate(0 0)"><path class="g" d="M153.9,136.787v-7.816a.258.258,0,0,1,.258-.258h5.618a.258.258,0,0,1,.258.258v7.816a.258.258,0,0,1-.258.258h-5.618A.258.258,0,0,1,153.9,136.787Z" transform="translate(-153.905 -128.713)"/></g></g><g transform="translate(21.695 16.417)"><g transform="translate(0 0)"><path class="k" d="M154.171,128.713a.259.259,0,0,0-.266.25V136.8a.259.259,0,0,0,.266.25h.374v-8.332Z" transform="translate(-153.905 -128.713)"/></g></g><g transform="translate(22.157 17.993)"><path class="c" d="M160.961,150.777h-.711a.156.156,0,0,1-.156-.156v-.646a.156.156,0,0,1,.156-.156h.711a.156.156,0,0,1,.156.156v.646A.156.156,0,0,1,160.961,150.777Z" transform="translate(-160.094 -149.818)"/></g><g transform="translate(23.394 18.174)"><path class="b" d="M180.554,152.836h-3.605a.3.3,0,0,1,0-.6h3.605a.3.3,0,0,1,0,.6Z" transform="translate(-176.65 -152.239)"/></g><g transform="translate(22.157 19.408)"><path class="c" d="M160.961,169.723h-.711a.156.156,0,0,1-.156-.156v-.646a.156.156,0,0,1,.156-.156h.711a.156.156,0,0,1,.156.156v.646A.156.156,0,0,1,160.961,169.723Z" transform="translate(-160.094 -168.764)"/></g><g transform="translate(23.394 19.589)"><path class="b" d="M180.554,171.783h-3.605a.3.3,0,0,1,0-.6h3.605a.3.3,0,0,1,0,.6Z" transform="translate(-176.65 -171.186)"/></g><g transform="translate(22.157 20.801)"><path class="c" d="M160.961,188.376h-.711a.156.156,0,0,1-.156-.156v-.646a.156.156,0,0,1,.156-.156h.711a.156.156,0,0,1,.156.156v.646A.156.156,0,0,1,160.961,188.376Z" transform="translate(-160.094 -187.417)"/></g><g transform="translate(23.394 20.982)"><path class="b" d="M180.554,190.436h-3.605a.3.3,0,0,1,0-.6h3.605a.3.3,0,0,1,0,.6Z" transform="translate(-176.65 -189.839)"/></g><g transform="translate(22.984 15.599)"><g transform="translate(0 0)"><path class="h" d="M174.492,119.095h-3.1a.231.231,0,0,1-.231-.231v-.872a.231.231,0,0,1,.231-.231h3.1a.231.231,0,0,1,.231.231v.872A.231.231,0,0,1,174.492,119.095Z" transform="translate(-171.166 -117.761)"/></g></g><g transform="translate(22.157 20.801)"><path class="l" d="M160.272,187.417h-.017a.157.157,0,0,0-.161.152v.656a.157.157,0,0,0,.161.152h.017Z" transform="translate(-160.094 -187.417)"/></g><g transform="translate(22.157 19.408)"><path class="l" d="M160.272,168.765h-.017a.157.157,0,0,0-.161.152v.656a.157.157,0,0,0,.161.152h.017Z" transform="translate(-160.094 -168.765)"/></g><g transform="translate(22.157 17.993)"><path class="l" d="M160.272,149.818h-.017a.157.157,0,0,0-.161.152v.656a.157.157,0,0,0,.161.152h.017Z" transform="translate(-160.094 -149.818)"/></g><g transform="translate(22.984 15.599)"><g transform="translate(0 0)"><path class="j" d="M172.1,118.883v-.912a.234.234,0,0,1,.252-.211h-.934a.234.234,0,0,0-.252.211v.912a.235.235,0,0,0,.252.211h.934A.234.234,0,0,1,172.1,118.883Z" transform="translate(-171.167 -117.76)"/></g></g><g transform="translate(24.06 16.022)"><ellipse class="j" cx="0.42" cy="0.395" rx="0.42" ry="0.395"/></g><g transform="translate(22.564 23.828)"><ellipse class="k" cx="0.42" cy="0.395" rx="0.42" ry="0.395"/></g><g transform="translate(22.256 20.544)"><path class="m" d="M161.843,185.053h0a.15.15,0,0,1-.12-.064l-.286-.412a.149.149,0,0,1,.246-.17l.167.241.459-.618a.149.149,0,0,1,.24.178l-.583.785A.149.149,0,0,1,161.843,185.053Z" transform="translate(-161.408 -183.97)"/></g><g transform="translate(22.256 19.14)"><path class="m" d="M161.843,166.264h0a.15.15,0,0,1-.12-.064l-.286-.412a.149.149,0,0,1,.246-.17l.167.241.459-.618a.149.149,0,1,1,.24.178l-.583.785A.149.149,0,0,1,161.843,166.264Z" transform="translate(-161.408 -165.18)"/></g><g transform="translate(22.256 17.737)"><path class="m" d="M161.843,147.474h0a.15.15,0,0,1-.12-.064l-.286-.412a.149.149,0,0,1,.246-.17l.167.241.459-.618a.149.149,0,0,1,.24.178l-.583.785A.149.149,0,0,1,161.843,147.474Z" transform="translate(-161.408 -146.39)"/></g><g transform="translate(22.157 22.204)"><path class="c" d="M160.961,207.165h-.711a.156.156,0,0,1-.156-.156v-.646a.156.156,0,0,1,.156-.156h.711a.156.156,0,0,1,.156.156v.646A.156.156,0,0,1,160.961,207.165Z" transform="translate(-160.094 -206.206)"/></g><g transform="translate(23.394 22.385)"><path class="b" d="M180.554,209.225h-3.605a.3.3,0,1,1,0-.6h3.605a.3.3,0,0,1,0,.6Z" transform="translate(-176.65 -208.628)"/></g><g transform="translate(22.157 22.204)"><path class="l" d="M160.272,206.206h-.017a.157.157,0,0,0-.161.152v.656a.157.157,0,0,0,.161.152h.017Z" transform="translate(-160.094 -206.206)"/></g><g transform="translate(22.256 21.947)"><path class="m" d="M161.843,203.842h0a.149.149,0,0,1-.12-.064l-.286-.412a.149.149,0,1,1,.246-.17l.167.241.459-.618a.149.149,0,1,1,.24.178l-.583.785A.15.15,0,0,1,161.843,203.842Z" transform="translate(-161.408 -202.759)"/></g></g></svg>