<svg xmlns="http://www.w3.org/2000/svg" width="17.47" height="13.551" viewBox="0 0 17.47 13.551"><defs><style>.a{fill:#ffc34c;}.b{fill:#ffb74b;}.c{fill:#ff624b;}.d{fill:#ffd551;}.e{fill:#ff4b34;}.f{fill:#ff9079;}.g{fill:#bf6c0d;}.h{fill:#a56021;}.i{fill:#db9c2e;}.j{fill:#f9bb32;}.k{fill:#ffdf74;}.l{fill:#fff4c1;}.m{fill:#e58d23;}</style></defs><g transform="translate(-9.076 -35.752)"><g transform="translate(18.678 36.235)"><path class="a" d="M142.448,43.505h-2.1a.544.544,0,0,1-.544-.544v-.088a.544.544,0,0,1,.544-.544h2.1Z" transform="translate(-139.804 -42.33)"/></g><g transform="translate(18.678 36.235)"><g transform="translate(0 0)"><path class="b" d="M140.685,43.256v-.088a.544.544,0,0,1,.544-.544h1.219v-.294h-2.1a.544.544,0,0,0-.544.544v.088a.544.544,0,0,0,.544.544h.4A.541.541,0,0,1,140.685,43.256Z" transform="translate(-139.804 -42.331)"/></g></g><g transform="translate(21.999 36.563)"><g transform="translate(0 0)"><rect class="c" width="1.07" height="2.531"/></g></g><g transform="translate(23.069 36.563)"><g transform="translate(0 0)"><path class="d" d="M200.139,49.328h-.548V46.8h.548a.5.5,0,0,1,.5.5v1.528A.5.5,0,0,1,200.139,49.328Z" transform="translate(-199.591 -46.797)"/></g></g><g transform="translate(22.849 36.235)"><g transform="translate(0 0)"><path class="e" d="M196.829,45.573h0a.235.235,0,0,1-.235-.235V42.566a.235.235,0,0,1,.235-.235h0a.235.235,0,0,1,.235.235v2.772A.235.235,0,0,1,196.829,45.573Z" transform="translate(-196.594 -42.331)"/></g></g><g transform="translate(16.153 35.752)"><g transform="translate(0 0)"><path class="f" d="M111.751,37.764h0L111.655,36a.25.25,0,0,0-.242-.245h-1.13a.249.249,0,0,0-.241.229l-.2,1.782-.559,6.291a.554.554,0,0,1-.538.524h-3.317v2.782h4.778l.064,0c.288,0,1.732-.1,1.853-2.028v-.016Z" transform="translate(-105.433 -35.752)"/></g></g><g transform="translate(16.154 35.752)"><g transform="translate(0 0)"><path class="c" d="M106.315,45.167h3.317a.554.554,0,0,0,.538-.524l.559-6.291.2-1.782a.249.249,0,0,1,.241-.229h.509L111.656,36a.25.25,0,0,0-.242-.245h-1.13a.249.249,0,0,0-.241.229l-.2,1.782-.559,6.291a.554.554,0,0,1-.538.524h-3.317v2.782h.881V45.167Z" transform="translate(-105.434 -35.753)"/></g></g><g transform="translate(10.788 45.337)"><g transform="translate(0)"><circle class="g" cx="1.983" cy="1.983" r="1.983"/></g></g><g transform="translate(10.788 45.337)"><g transform="translate(0)"><path class="h" d="M33.266,168.23a1.984,1.984,0,0,1,1.542-1.933,1.983,1.983,0,1,0,0,3.867A1.983,1.983,0,0,1,33.266,168.23Z" transform="translate(-32.385 -166.247)"/></g></g><g transform="translate(10.788 45.337)"><g transform="translate(0)"><path class="h" d="M34.368,166.247a1.982,1.982,0,0,0-1.955,2.318h3.909a1.982,1.982,0,0,0-1.954-2.318Z" transform="translate(-32.385 -166.247)"/></g></g><g transform="translate(11.669 46.218)"><circle class="a" cx="1.102" cy="1.102" r="1.102"/></g><g transform="translate(11.669 46.218)"><path class="i" d="M44.973,179.349a1.1,1.1,0,0,1,.808-1.061,1.1,1.1,0,1,0,0,2.122A1.1,1.1,0,0,1,44.973,179.349Z" transform="translate(-44.385 -178.247)"/></g><g transform="translate(11.669 46.218)"><path class="i" d="M45.487,178.247a1.1,1.1,0,0,0-1.049,1.436h2.1a1.1,1.1,0,0,0-1.049-1.436Z" transform="translate(-44.385 -178.247)"/></g><g transform="translate(9.076 42.047)"><g transform="translate(0 0)"><path class="c" d="M15.424,121.461H12.8c-2.055,0-3.721,2.027-3.721,4.527v.493a.294.294,0,0,0,.294.294h7.462a.294.294,0,0,0,.294-.294V122.5a1.033,1.033,0,0,0-1.028-1.038Z" transform="translate(-9.076 -121.461)"/></g></g><g transform="translate(9.51 38.044)"><g transform="translate(0 0)"><path class="h" d="M15.35,69.437v-2.3a.182.182,0,1,0-.363,0v2.685h2.665v-.389h-2.3Z" transform="translate(-14.987 -66.96)"/></g></g><g transform="translate(9.874 36.31)"><g transform="translate(0 0)"><path class="j" d="M23.9,47.561h-3.7a.271.271,0,0,1-.271-.271V43.614a.271.271,0,0,1,.271-.271h3.7a.271.271,0,0,1,.271.271v3.677A.27.27,0,0,1,23.9,47.561Z" transform="translate(-19.935 -43.343)"/></g></g><g transform="translate(13.683 36.463)"><g transform="translate(0 0)"><path class="a" d="M71.942,47.291a.147.147,0,0,1-.147-.147V45.582a.147.147,0,1,1,.294,0v1.562A.147.147,0,0,1,71.942,47.291Z" transform="translate(-71.795 -45.435)"/></g></g><g transform="translate(11.409 36.31)"><g transform="translate(0 0)"><path class="k" d="M41.966,45.212V43.343H40.839v1.869c.094,0,.094.187.188.187s.094-.187.188-.187.094.187.188.187.094-.187.188-.187.094.187.188.187S41.872,45.212,41.966,45.212Z" transform="translate(-40.839 -43.343)"/></g></g><g transform="translate(12.263 36.444)"><g transform="translate(0)"><path class="l" d="M52.543,46.849a.073.073,0,0,1-.073-.073V45.252a.073.073,0,0,1,.147,0v1.523A.073.073,0,0,1,52.543,46.849Z" transform="translate(-52.47 -45.179)"/></g></g><g transform="translate(12.83 39.628)"><g transform="translate(0 0)"><path class="h" d="M61.187,88.744H60.3a.11.11,0,0,1,0-.22h.886a.11.11,0,0,1,0,.22Z" transform="translate(-60.191 -88.524)"/></g></g><g transform="translate(12.83 39.946)"><g transform="translate(0 0)"><path class="h" d="M61.187,93.076H60.3a.11.11,0,1,1,0-.22h.886a.11.11,0,1,1,0,.22Z" transform="translate(-60.191 -92.856)"/></g></g><g transform="translate(10.717 40.498)"><g transform="translate(0 0)"><path class="g" d="M37.4,102.06H31.889a.477.477,0,0,1-.477-.477v-.734a.477.477,0,0,1,.477-.477H37.4a.477.477,0,0,1,.477.477v.734A.477.477,0,0,1,37.4,102.06Z" transform="translate(-31.412 -100.373)"/></g></g><g transform="translate(16.375 40.866)"><g transform="translate(0 0)"><path class="m" d="M108.673,106.326a.22.22,0,0,1-.22-.22v-.512a.22.22,0,1,1,.441,0v.512A.22.22,0,0,1,108.673,106.326Z" transform="translate(-108.453 -105.373)"/></g></g><g transform="translate(19.288 43.426)"><g transform="translate(0 0)"><path class="c" d="M155.071,144.129a.3.3,0,0,0,.293-.317,3.634,3.634,0,1,0-7.257.317h1.817a1.822,1.822,0,1,1,3.635,0Z" transform="translate(-148.107 -140.235)"/></g></g><g transform="translate(24.336 44.315)"><g transform="translate(0)"><path class="f" d="M218.417,154.973a.22.22,0,0,1-.217-.184,3.128,3.128,0,0,0-1.274-2.052.22.22,0,1,1,.251-.362,3.571,3.571,0,0,1,1.457,2.342.22.22,0,0,1-.181.254Z" transform="translate(-216.832 -152.335)"/></g></g><g transform="translate(20.939 45.337)"><circle class="g" cx="1.983" cy="1.983" r="1.983"/></g><g transform="translate(21.821 46.218)"><g transform="translate(0)"><circle class="a" cx="1.102" cy="1.102" r="1.102"/></g></g><g transform="translate(10.717 40.498)"><g transform="translate(0 0)"><path class="h" d="M33.469,101.584v-.734a.477.477,0,0,1,.477-.477H31.889a.477.477,0,0,0-.477.477v.734a.477.477,0,0,0,.477.477h2.057A.477.477,0,0,1,33.469,101.584Z" transform="translate(-31.412 -100.373)"/></g></g><g transform="translate(9.076 42.047)"><g transform="translate(0 0)"><path class="e" d="M11.133,126.576c0-2.5,1.666-4.527,3.721-4.527h2.169a1.026,1.026,0,0,0-.925-.588H12.8c-2.055,0-3.721,2.027-3.721,4.527v.493a.294.294,0,0,0,.294.294h1.763v-.2Z" transform="translate(-9.076 -121.461)"/></g></g><g transform="translate(12.976 42.718)"><path class="b" d="M64.786,130.953H62.363a.184.184,0,0,1-.184-.184h0a.184.184,0,0,1,.184-.184h2.424a.184.184,0,0,1,.184.184h0A.184.184,0,0,1,64.786,130.953Z" transform="translate(-62.179 -130.586)"/></g><g transform="translate(12.976 43.599)"><path class="b" d="M64.786,142.953H62.363a.184.184,0,0,1-.184-.184h0a.184.184,0,0,1,.184-.184h2.424a.184.184,0,0,1,.184.184h0A.184.184,0,0,1,64.786,142.953Z" transform="translate(-62.179 -142.586)"/></g><g transform="translate(12.976 44.48)"><g transform="translate(0 0)"><path class="b" d="M64.786,154.953H62.363a.184.184,0,0,1-.184-.184h0a.184.184,0,0,1,.184-.184h2.424a.184.184,0,0,1,.184.184h0A.184.184,0,0,1,64.786,154.953Z" transform="translate(-62.179 -154.586)"/></g></g><g transform="translate(12.976 42.718)"><path class="i" d="M62.363,130.586a.184.184,0,0,0,0,.367h.075a3.258,3.258,0,0,1,.912-.367Z" transform="translate(-62.179 -130.586)"/></g><g transform="translate(19.288 43.426)"><g transform="translate(0)"><path class="e" d="M153.21,140.823a3.412,3.412,0,0,1,.5.038,3.442,3.442,0,0,0-1.972-.625,3.775,3.775,0,0,0-3.635,3.894h1.51A3.729,3.729,0,0,1,153.21,140.823Z" transform="translate(-148.106 -140.235)"/></g></g><g transform="translate(20.939 45.337)"><path class="h" d="M171.472,168.23a1.984,1.984,0,0,1,1.542-1.933,1.983,1.983,0,1,0,0,3.867A1.983,1.983,0,0,1,171.472,168.23Z" transform="translate(-170.591 -166.247)"/></g><g transform="translate(21.821 46.218)"><g transform="translate(0)"><path class="i" d="M183.179,179.349a1.1,1.1,0,0,1,.808-1.061,1.1,1.1,0,1,0,0,2.122A1.1,1.1,0,0,1,183.179,179.349Z" transform="translate(-182.591 -178.247)"/></g></g><g transform="translate(11.514 45.774)"><g transform="translate(0 0)"><circle class="e" cx="0.661" cy="0.661" r="0.661"/></g></g><g transform="translate(21.16 42.07)"><g transform="translate(0 0)"><circle class="c" cx="0.661" cy="0.661" r="0.661"/></g></g><g transform="translate(9.874 36.309)"><g transform="translate(0 0)"><path class="i" d="M20.816,47.29V43.613a.271.271,0,0,1,.271-.271h-.881a.271.271,0,0,0-.271.271V47.29a.271.271,0,0,0,.271.271h.881A.271.271,0,0,1,20.816,47.29Z" transform="translate(-19.935 -43.342)"/></g></g><g transform="translate(10.033 39.638)"><g transform="translate(0 0)"><path class="h" d="M22.911,89.183h-.746a.064.064,0,0,1-.064-.064v-.391a.064.064,0,0,1,.064-.064h.746a.064.064,0,0,1,.064.064v.391A.064.064,0,0,1,22.911,89.183Z" transform="translate(-22.102 -88.665)"/></g></g></g></svg>