<svg xmlns="http://www.w3.org/2000/svg" width="11.338" height="18.02" viewBox="0 0 11.338 18.02"><defs><style>.a{fill:#ccc033;}.b{fill:#99af17;}.c{fill:#e58d23;}.d{fill:#ffeacf;}.e{fill:#ffd59a;}.f{fill:#f9bb32;}.g{fill:#8c4c17;}.h{fill:#a56021;}.i{fill:#ffa730;}.j{fill:#ffd551;}.k{fill:#ffdf74;}.l{fill:#bf6c0d;}.m{fill:#db9c2e;}</style></defs><g transform="translate(-52.5 -8)"><g transform="translate(52.5 19.208)"><path class="a" d="M63.838,162.153H52.5v-1.115a3.759,3.759,0,0,1,3.759-3.759h3.82a3.759,3.759,0,0,1,3.759,3.759Z" transform="translate(-52.5 -157.279)"/></g><g transform="translate(52.5 19.208)"><path class="b" d="M58.361,157.279h-2.1a3.759,3.759,0,0,0-3.759,3.759v1.115h2.1v-1.115A3.759,3.759,0,0,1,58.361,157.279Z" transform="translate(-52.5 -157.279)"/></g><g transform="translate(57.737 20.785)"><path class="c" d="M122.891,179.841h-.482a.158.158,0,0,1-.158-.158v-1.41h.8v1.41A.158.158,0,0,1,122.891,179.841Z" transform="translate(-122.251 -178.272)"/></g><g transform="translate(56.657 16.66)"><path class="d" d="M110.84,126.512v-3.176h-2.974v3.176h.008l1.471.949,1.5-.949Z" transform="translate(-107.866 -123.336)"/></g><g transform="translate(56.657 16.66)"><path class="e" d="M109.376,126.512h-.008v-3.176h-1.5v3.176h.008l1.471.949.759-.479Z" transform="translate(-107.866 -123.336)"/></g><g transform="translate(53.722 21.726)"><path class="f" d="M77.669,195.1H68.776v-3.994a.3.3,0,0,1,.3-.3h8.293a.3.3,0,0,1,.3.3Z" transform="translate(-68.776 -190.807)"/></g><g transform="translate(54.147 10.323)"><path class="g" d="M75.209,44.245h1.3V39.7a.769.769,0,0,0-.769-.769h-.535a.769.769,0,0,0-.769.769v3.773A.769.769,0,0,0,75.209,44.245Z" transform="translate(-74.44 -38.934)"/></g><g transform="translate(60.133 9.932)"><path class="g" d="M155.442,33.736h-.521a.76.76,0,0,0-.762.759v.661a3.341,3.341,0,0,1,1.359,2.69v1.2a.76.76,0,0,0,.686-.755V34.495A.76.76,0,0,0,155.442,33.736Z" transform="translate(-154.159 -33.736)"/></g><g transform="translate(60.484 13.246)"><ellipse class="d" cx="1.103" cy="1.084" rx="1.103" ry="1.084" transform="translate(0 0)"/></g><g transform="translate(53.533 13.638)"><ellipse class="e" cx="1.103" cy="1.084" rx="1.103" ry="1.084" transform="translate(0 0)"/></g><g transform="translate(54.765 10.173)"><path class="d" d="M86.113,45.345h-.064a3.379,3.379,0,0,1-3.379-3.379V40.317a3.379,3.379,0,0,1,3.379-3.379h.064a3.379,3.379,0,0,1,3.379,3.379v1.649A3.379,3.379,0,0,1,86.113,45.345Z" transform="translate(-82.67 -36.938)"/></g><g transform="translate(54.765 10.173)"><path class="e" d="M83.865,41.574V39.91a3.313,3.313,0,0,1,.021-.375.383.383,0,0,1,.384-.334h5.036a3.408,3.408,0,0,0-3.227-2.262,3.508,3.508,0,0,0-.432.027h0l-.033,0-.107.016L85.456,37l-.094.018-.054.012-.091.022-.053.014-.093.027-.047.014-.11.037-.027.009q-.068.025-.134.052l-.034.015-.1.043-.047.023-.081.04-.05.027-.075.042-.05.029-.074.045-.047.029-.08.054-.037.025q-.056.04-.111.082l-.033.027-.075.061-.044.038-.061.055-.045.042-.056.055-.045.045-.054.057-.042.046-.053.062-.038.044c-.026.031-.051.064-.076.1l-.038.051-.051.071-.036.053-.041.063-.035.057-.037.062-.034.06-.034.064-.031.061-.032.067-.028.06c-.012.027-.023.055-.035.083s-.024.06-.036.091-.019.05-.028.075h0a3.292,3.292,0,0,0-.184,1.088v1.665a3.406,3.406,0,0,0,3.375,3.391,3.445,3.445,0,0,0,1.665-.406,3.5,3.5,0,0,1-.455.027A3.408,3.408,0,0,1,83.865,41.574Z" transform="translate(-82.668 -36.939)"/></g><g transform="translate(55.821 13.959)"><g transform="translate(0 0)"><ellipse class="h" cx="0.425" cy="0.417" rx="0.425" ry="0.417"/></g><g transform="translate(3.862 0)"><ellipse class="h" cx="0.425" cy="0.417" rx="0.425" ry="0.417"/></g></g><g transform="translate(54.16 9.087)"><path class="h" d="M81.478,25.516H75.75a1.145,1.145,0,0,1-1.145-1.145v-.742a1.145,1.145,0,0,1,1.145-1.145h5.728a1.145,1.145,0,0,1,1.145,1.145v.742A1.145,1.145,0,0,1,81.478,25.516Z" transform="translate(-74.605 -22.483)"/></g><g transform="translate(54.14 8)"><path class="c" d="M82.4,11.608H74.34v-1.55A2.058,2.058,0,0,1,76.4,8H80.34A2.057,2.057,0,0,1,82.4,10.058Z" transform="translate(-74.34 -8)"/></g><g transform="translate(59.915 8.375)"><path class="i" d="M152.939,14.907a.225.225,0,0,1-.225-.225,1.233,1.233,0,0,0-1.232-1.232.225.225,0,0,1,0-.45,1.684,1.684,0,0,1,1.682,1.682A.225.225,0,0,1,152.939,14.907Z" transform="translate(-151.257 -13)"/></g><g transform="translate(54.147 11.608)"><path class="i" d="M74.44,56.052h8.031v.625A1.621,1.621,0,0,1,80.85,58.3H76.061a1.621,1.621,0,0,1-1.621-1.621Z" transform="translate(-74.44 -56.052)"/></g><g transform="translate(56.652 9.869)"><path class="j" d="M110.292,34h-1.959a.537.537,0,0,1-.537-.537v-.023a.537.537,0,0,1,.537-.537h1.959a.537.537,0,0,1,.537.537v.023A.537.537,0,0,1,110.292,34Z" transform="translate(-107.795 -32.897)"/></g><g transform="translate(57.34 21.726)"><path class="k" d="M118.564,192.8v-2h-1.6v2c.133,0,.133.2.266.2s.133-.2.266-.2.133.2.266.2.133-.2.266-.2.133.2.267.2S118.431,192.8,118.564,192.8Z" transform="translate(-116.967 -190.808)"/></g><g transform="translate(54.147 11.608)"><path class="i" d="M74.44,56.052h8.031v.625A1.621,1.621,0,0,1,80.85,58.3H76.061a1.621,1.621,0,0,1-1.621-1.621Z" transform="translate(-74.44 -56.052)"/></g><g transform="translate(54.14 8)"><path class="l" d="M78.5,8h-2.1a2.054,2.054,0,0,0-2.054,2.054v1.554h2.1V10.054A2.054,2.054,0,0,1,78.5,8Z" transform="translate(-74.34 -8)"/></g><g transform="translate(54.147 11.608)"><path class="i" d="M74.44,56.052H82.5v.623A1.623,1.623,0,0,1,80.875,58.3H76.063a1.623,1.623,0,0,1-1.623-1.623v-.623Z" transform="translate(-74.44 -56.052)"/></g><g transform="translate(54.147 11.608)"><path class="c" d="M76.542,56.677v-.625h-2.1v.625A1.621,1.621,0,0,0,76.061,58.3h2.1A1.621,1.621,0,0,1,76.542,56.677Z" transform="translate(-74.44 -56.052)"/></g><g transform="translate(56.825 12.055)"><circle class="c" cx="0.676" cy="0.676" r="0.676" transform="translate(0 0)"/></g><g transform="translate(55.088 19.208)"><path class="l" d="M88.551,157.279H87.133a.157.157,0,0,0-.139.232l1.138,2.075a.158.158,0,0,0,.206.066l1.684-.8L88.7,158a.312.312,0,0,1-.144-.262Z" transform="translate(-86.975 -157.279)"/></g><g transform="translate(58.136 19.208)"><path class="l" d="M129.07,157.279h1.449a.157.157,0,0,1,.142.232l-1.162,2.075a.163.163,0,0,1-.21.067l-1.721-.8,1.356-.856a.312.312,0,0,0,.147-.264Z" transform="translate(-127.568 -157.279)"/></g><g transform="translate(55.088 19.208)"><path class="h" d="M87.9,157.511a.157.157,0,0,1,.139-.232h-.9a.157.157,0,0,0-.139.232l1.138,2.075a.158.158,0,0,0,.206.066l.58-.275Z" transform="translate(-86.975 -157.279)"/></g><g transform="translate(53.722 21.726)"><path class="m" d="M71.179,190.807h-2.1a.3.3,0,0,0-.3.3V195.1h2.1v-3.994A.3.3,0,0,1,71.179,190.807Z" transform="translate(-68.776 -190.807)"/></g></g></svg>